<svg width="361" height="379" viewBox="0 0 361 379" fill="none" xmlns="http://www.w3.org/2000/svg">
<path d="M0.535156 0.285156C9.32422 1.84766 16.5508 2.92188 22.2148 3.50781C27.8789 4.09375 32.4688 4.58203 35.9844 4.97266C40.0859 5.36328 43.3086 5.46094 45.6523 5.26562H54.4414C57.5664 5.26562 61.4727 5.26562 66.1602 5.26562C71.043 5.07031 77.0977 4.97266 84.3242 4.97266C88.4258 14.543 92.1367 23.332 95.457 31.3398C98.9727 39.3477 101.902 46.1836 104.246 51.8477C106.98 58.6836 109.52 64.8359 111.863 70.3047C114.598 77.1406 117.527 84.6602 120.652 92.8633C123.777 101.066 126.609 108.781 129.148 116.008C131.883 123.234 134.129 129.191 135.887 133.879C137.645 138.566 138.523 140.715 138.523 140.324C138.523 140.129 138.621 138.176 138.816 134.465C139.012 130.559 139.207 125.773 139.402 120.109C139.598 114.25 139.793 107.902 139.988 101.066C140.379 94.0352 140.574 87.2969 140.574 80.8516C140.77 74.2109 140.867 68.1562 140.867 62.6875C140.867 57.2188 140.672 53.1172 140.281 50.3828C139.695 47.0625 138.523 43.2539 136.766 38.957C135.203 35.2461 133.055 30.8516 130.32 25.7734C127.586 20.5 123.777 14.543 118.895 7.90234C126.902 8.09766 133.445 8.19531 138.523 8.19531C143.602 8.19531 147.703 8.19531 150.828 8.19531C154.344 8.19531 157.078 8.09766 159.031 7.90234C161.57 7.90234 164.695 7.70703 168.406 7.31641C171.727 6.92578 175.828 6.63281 180.711 6.4375C185.789 6.04687 192.039 5.55859 199.461 4.97266C195.164 8.87891 191.746 12.5898 189.207 16.1055C186.668 19.6211 184.617 22.7461 183.055 25.4805C181.297 28.6055 180.125 31.5352 179.539 34.2695C178.758 37.7852 178.074 43.5469 177.488 51.5547C177.098 59.3672 176.609 68.1562 176.023 77.9219C175.633 87.6875 175.242 97.8438 174.852 108.391C174.461 118.938 174.07 128.605 173.68 137.395C173.68 144.035 173.484 151.164 173.094 158.781C172.703 165.227 172.312 172.551 171.922 180.754C171.531 188.762 171.043 196.867 170.457 205.07L144.383 205.656C136.766 192.18 130.32 180.656 125.047 171.086C119.969 161.32 115.77 153.312 112.449 147.062C108.738 139.836 105.613 133.781 103.074 128.898C100.926 124.211 98.0938 118.84 94.5781 112.785C91.6484 107.707 87.9375 101.457 83.4453 94.0352C79.1484 86.6133 73.9727 78.1172 67.918 68.5469C67.332 82.0234 67.0391 93.5469 67.0391 103.117C67.2344 112.492 67.5273 120.305 67.918 126.555C68.5039 133.781 69.1875 139.836 69.9688 144.719C70.9453 149.406 72.3125 154.68 74.0703 160.539C75.6328 165.617 77.4883 171.574 79.6367 178.41C81.9805 185.246 84.8125 192.961 88.1328 201.555C76.6094 200.969 68.0156 200.676 62.3516 200.676H53.5625C50.8281 200.676 47.1172 200.969 42.4297 201.555C38.5234 201.945 33.1523 202.531 26.3164 203.312C19.6758 204.094 11.375 205.168 1.41406 206.535C6.10156 200.871 9.8125 195.695 12.5469 191.008C15.4766 186.125 17.7227 182.023 19.2852 178.703C21.2383 174.797 22.6055 171.379 23.3867 168.449C23.9727 165.324 24.3633 159.953 24.5586 152.336C24.7539 144.523 24.7539 135.734 24.5586 125.969C24.5586 116.008 24.3633 105.559 23.9727 94.6211C23.7773 83.6836 23.4844 73.5273 23.0938 64.1523C22.7031 54.7773 22.2148 46.7695 21.6289 40.1289C21.2383 33.4883 20.9453 29.3867 20.75 27.8242C20.1641 25.2852 18.9922 22.5508 17.2344 19.6211C15.6719 17.082 13.6211 14.25 11.082 11.125C8.54297 7.80469 5.02734 4.19141 0.535156 0.285156ZM218.504 89.3477C219.48 88.1758 220.066 86.0273 220.262 82.9023C220.652 79.582 221.434 75.8711 222.605 71.7695C223.973 67.668 226.219 63.3711 229.344 58.8789C232.469 54.3867 237.547 50.1875 244.578 46.2812C251.414 42.375 258.055 40.0312 264.5 39.25C270.945 38.4688 277.098 38.7617 282.957 40.1289C288.816 41.4961 294.285 43.6445 299.363 46.5742C304.637 49.5039 309.422 52.7266 313.719 56.2422C316.648 58.5859 318.992 62.0039 320.75 66.4961C322.508 70.793 323.875 75.6758 324.852 81.1445C325.828 86.6133 326.512 92.375 326.902 98.4297C327.488 104.289 327.879 110.051 328.074 115.715C328.27 121.184 328.367 126.262 328.367 130.949C328.562 135.441 328.953 139.152 329.539 142.082C330.32 146.379 331.688 150.09 333.641 153.215C335.594 156.145 337.742 158.684 340.086 160.832C342.43 162.785 344.773 164.348 347.117 165.52C349.461 166.691 351.512 167.57 353.27 168.156C354.441 168.742 355.516 169.133 356.492 169.328C358.445 170.109 359.812 170.109 360.594 169.328C359.422 172.062 358.348 174.406 357.371 176.359C356.395 178.312 355.613 179.973 355.027 181.34C354.246 182.902 353.562 184.172 352.977 185.148C352.391 186.32 351.707 187.395 350.926 188.371C350.34 189.348 349.559 190.422 348.582 191.594C347.605 192.766 346.629 194.035 345.652 195.402C343.113 194.426 340.672 193.254 338.328 191.887C336.18 190.52 334.227 189.25 332.469 188.078C330.32 186.711 328.367 185.344 326.609 183.977C324.852 182.609 323.191 181.047 321.629 179.289C320.262 177.727 318.797 176.066 317.234 174.309C315.867 172.551 314.695 170.598 313.719 168.449C312.547 170.988 309.715 174.602 305.223 179.289C300.926 183.977 295.262 188.273 288.23 192.18C281.199 195.891 272.996 198.527 263.621 200.09C254.441 201.652 244.285 200.578 233.152 196.867C228.27 195.305 223.68 193.059 219.383 190.129C215.086 187.004 211.375 183.293 208.25 178.996C205.32 174.699 203.172 169.816 201.805 164.348C200.633 158.684 200.73 152.434 202.098 145.598C203.465 138.762 205.906 133 209.422 128.312C212.938 123.625 217.137 119.816 222.02 116.887C226.902 113.957 232.371 111.711 238.426 110.148C244.48 108.586 250.73 107.512 257.176 106.926C262.254 106.73 267.332 107.023 272.41 107.805C276.707 108.586 281.199 110.051 285.887 112.199C290.574 114.152 294.578 117.18 297.898 121.281C297.703 110.93 297.312 102.727 296.727 96.6719C296.336 90.4219 295.945 85.6367 295.555 82.3164C294.773 78.4102 294.09 75.6758 293.504 74.1133C292.527 72.7461 291.453 71.1836 290.281 69.4258C289.305 67.668 288.035 66.1055 286.473 64.7383C284.91 63.1758 282.957 61.9062 280.613 60.9297C278.27 59.9531 275.535 59.5625 272.41 59.7578C269.09 59.9531 266.453 60.832 264.5 62.3945C262.547 63.957 260.984 65.8125 259.812 67.9609C258.836 69.9141 258.25 72.0625 258.055 74.4062C257.859 76.75 257.957 78.8008 258.348 80.5586C258.738 81.7305 259.324 83 260.105 84.3672C260.887 85.5391 261.961 86.8086 263.328 88.1758C264.695 89.543 266.551 90.7148 268.895 91.6914C264.402 92.2773 260.398 92.7656 256.883 93.1562C253.367 93.3516 250.34 93.6445 247.801 94.0352C244.871 94.4258 242.332 94.7188 240.184 94.9141C238.035 95.1094 235.496 95.5 232.566 96.0859C230.027 96.4766 226.902 96.9648 223.191 97.5508C219.48 98.1367 215.184 98.918 210.301 99.8945C211.473 98.5273 212.547 97.2578 213.523 96.0859C214.5 94.7188 215.379 93.5469 216.16 92.5703C216.941 91.3984 217.723 90.3242 218.504 89.3477ZM262.449 124.211C258.934 124.406 255.418 125.285 251.902 126.848C248.387 128.215 245.262 130.266 242.527 133C239.793 135.539 237.449 138.566 235.496 142.082C233.738 145.402 232.859 149.113 232.859 153.215C232.859 157.316 233.836 160.93 235.789 164.055C237.938 166.984 240.672 169.426 243.992 171.379C247.508 173.332 251.219 174.504 255.125 174.895C259.227 175.285 263.23 174.895 267.137 173.723C270.848 172.355 274.363 170.207 277.684 167.277C281.004 164.152 283.836 160.832 286.18 157.316C288.523 153.605 290.184 149.992 291.16 146.477C292.137 142.766 292.234 139.738 291.453 137.395C289.891 132.316 286.375 128.801 280.906 126.848C275.438 124.699 269.285 123.82 262.449 124.211ZM4.92969 249.133C9.42188 248.742 13.2305 248.352 16.3555 247.961C19.6758 247.57 22.4102 247.18 24.5586 246.789C27.0977 246.398 29.2461 246.008 31.0039 245.617C32.7617 245.422 34.7148 245.031 36.8633 244.445C38.8164 244.055 40.9648 243.566 43.3086 242.98C45.8477 242.199 48.582 241.32 51.5117 240.344L49.7539 277.551C54.0508 270.715 59.0312 265.539 64.6953 262.023C70.3594 258.312 75.7305 255.578 80.8086 253.82C86.8633 251.672 92.918 250.402 98.9727 250.012C105.223 250.207 110.984 251.184 116.258 252.941C120.75 254.504 125.242 256.945 129.734 260.266C134.422 263.586 138.035 268.469 140.574 274.914C147.215 268.078 153.758 262.805 160.203 259.094C166.844 255.188 172.703 252.258 177.781 250.305C183.836 248.156 189.5 246.887 194.773 246.496C201.805 246.301 208.25 247.473 214.109 250.012C220.164 252.551 225.438 255.773 229.93 259.68C234.422 263.391 238.035 267.395 240.77 271.691C243.504 275.793 245.066 279.406 245.457 282.531C246.043 286.828 245.75 292.395 244.578 299.23C243.406 305.871 242.039 312.707 240.477 319.738C238.914 326.574 237.449 332.922 236.082 338.781C234.91 344.445 234.422 348.449 234.617 350.793C235.203 352.746 236.57 355.09 238.719 357.824C240.672 360.168 243.504 363.098 247.215 366.613C251.121 369.934 256.688 373.84 263.914 378.332C257.664 378.137 252.098 377.941 247.215 377.746C242.527 377.551 238.523 377.258 235.203 376.867C231.297 376.477 227.879 376.184 224.949 375.988C222.605 375.988 219.773 375.793 216.453 375.402C213.719 375.207 210.105 374.914 205.613 374.523C201.316 374.133 196.336 373.742 190.672 373.352C192.82 372.766 194.578 371.691 195.945 370.129C197.312 368.371 198.484 366.711 199.461 365.148C200.438 363.195 201.219 361.047 201.805 358.703C202.195 356.75 202.586 353.625 202.977 349.328C203.367 345.031 203.66 340.148 203.855 334.68C204.246 329.211 204.441 323.449 204.441 317.395C204.637 311.34 204.637 305.578 204.441 300.109C204.246 294.641 203.855 289.66 203.27 285.168C202.684 280.676 201.902 277.258 200.926 274.914C200.145 273.156 198.777 271.789 196.824 270.812C194.871 269.641 192.625 268.957 190.086 268.762C187.547 268.371 185.008 268.469 182.469 269.055C179.93 269.445 177.684 270.227 175.73 271.398C173.973 272.766 171.629 274.621 168.699 276.965C166.16 279.113 162.84 282.043 158.738 285.754C154.637 289.465 149.461 294.152 143.211 299.816C142.625 312.121 142.137 322.082 141.746 329.699C141.551 337.121 141.355 342.785 141.16 346.691C140.965 351.379 140.867 354.602 140.867 356.359C140.672 357.922 140.77 359.387 141.16 360.754C141.551 363.684 142.723 366.418 144.676 368.957C142.332 368.371 139.793 367.98 137.059 367.785C134.52 367.59 132.176 367.395 130.027 367.199C127.488 367.004 124.949 366.906 122.41 366.906C120.262 366.906 117.918 367.004 115.379 367.199C113.23 367.395 110.594 367.688 107.469 368.078C104.344 368.273 100.926 368.566 97.2148 368.957C98.7773 367.98 100.047 366.809 101.023 365.441C102 364.074 102.781 362.805 103.367 361.633C104.148 360.266 104.734 358.996 105.125 357.824C105.32 356.652 105.711 353.82 106.297 349.328C106.883 344.641 107.273 339.172 107.469 332.922C107.664 326.672 107.664 320.129 107.469 313.293C107.273 306.262 106.59 299.914 105.418 294.25C104.246 288.391 102.391 283.605 99.8516 279.895C97.5078 276.184 94.3828 274.523 90.4766 274.914C85.7891 275.305 81.0039 276.477 76.1211 278.43C72.0195 279.992 67.625 282.336 62.9375 285.461C58.25 288.586 53.8555 292.785 49.7539 298.059C48.9727 312.707 48.4844 324.328 48.2891 332.922C48.2891 341.516 48.3867 348.059 48.582 352.551C48.7773 357.824 48.9727 361.438 49.168 363.391C49.3633 364.758 49.8516 366.125 50.6328 367.492C51.2188 368.664 51.9023 370.031 52.6836 371.594C53.6602 373.156 54.7344 374.621 55.9062 375.988L9.32422 373.645C10.8867 372.863 12.2539 371.887 13.4258 370.715C14.5977 369.348 15.5742 367.98 16.3555 366.613C17.1367 365.051 17.918 363.488 18.6992 361.926C19.2852 360.559 19.7734 357.336 20.1641 352.258C20.75 347.18 21.2383 341.223 21.6289 334.387C22.0195 327.355 22.3125 320.031 22.5078 312.414C22.8984 304.602 23.0938 297.375 23.0938 290.734C23.2891 283.898 23.3867 278.137 23.3867 273.449C23.3867 268.566 23.2891 265.637 23.0938 264.66C22.5078 262.707 21.4336 260.656 19.8711 258.508C18.5039 256.945 16.6484 255.285 14.3047 253.527C11.9609 251.574 8.83594 250.109 4.92969 249.133ZM265.379 257.043L319.285 257.629C316.16 269.543 313.816 279.699 312.254 288.098C310.887 296.496 310.008 303.527 309.617 309.191C308.836 315.637 308.641 321.105 309.031 325.598C309.617 329.699 310.594 334.094 311.961 338.781C313.133 342.688 314.891 347.18 317.234 352.258C319.578 357.336 322.703 362.414 326.609 367.492C324.266 366.711 321.727 366.125 318.992 365.734C316.258 365.344 313.719 365.051 311.375 364.855C308.641 364.66 305.906 364.66 303.172 364.855C300.438 365.051 297.41 365.344 294.09 365.734C291.355 366.125 288.035 366.613 284.129 367.199C280.223 367.785 276.121 368.566 271.824 369.543C274.754 360.754 277 353.137 278.562 346.691C280.32 340.246 281.59 334.875 282.371 330.578C283.152 325.5 283.641 321.398 283.836 318.273C283.836 314.367 283.836 309.973 283.836 305.09C283.836 300.012 283.836 295.129 283.836 290.441C283.836 285.754 283.738 281.652 283.543 278.137C283.348 274.426 282.957 272.082 282.371 271.105L279.441 268.176C278.27 267.199 276.512 265.832 274.168 264.074C272.02 262.121 269.09 259.777 265.379 257.043ZM286.18 211.926C290.281 209.777 294.383 209.191 298.484 210.168C302.781 211.145 306.102 213 308.445 215.734C310.789 218.469 311.57 221.691 310.789 225.402C310.203 229.113 307.078 232.727 301.414 236.242C295.75 239.562 290.77 240.734 286.473 239.758C282.176 238.781 279.148 236.73 277.391 233.605C275.633 230.48 275.34 226.867 276.512 222.766C277.684 218.469 280.906 214.855 286.18 211.926Z" fill="#3C6754"/>
</svg>
